G04 PROTEUS RS274X GERBER FILE*
%FSLAX45Y45*%
%MOMM*%
G01*
%ADD17C,0.203200*%
%ADD18C,0.508000*%
%ADD19C,0.990600*%
%ADD70C,0.533400*%
%ADD71C,0.812800*%
%ADD20C,0.259080*%
%ADD21C,0.316990*%
%ADD22C,0.164590*%
%ADD23C,0.050800*%
%ADD24C,0.191010*%
%ADD25C,0.711200*%
%ADD26C,0.106680*%
%ADD27C,0.240790*%
D17*
X-1042500Y-2177160D02*
X+608500Y-2177160D01*
X+608500Y+2923160D01*
X-1042500Y+2923160D01*
X-1042500Y-2177160D01*
D18*
X-979000Y+2786000D02*
X-979000Y+2786000D01*
D19*
X-514180Y-419480D02*
X-18880Y-419480D01*
X+80180Y-320420D01*
X+80180Y+75820D01*
X-18880Y+174880D01*
X-514180Y+174880D01*
X-316060Y+571120D02*
X-514180Y+769240D01*
X+80180Y+769240D01*
D17*
X+1296500Y-2141160D02*
X+2185500Y-2141160D01*
X+2185500Y-88840D01*
X+1296500Y-88840D01*
X+1296500Y-2141160D01*
D18*
X+1360000Y-226000D02*
X+1360000Y-226000D01*
D70*
X+1580980Y-1541720D02*
X+1847680Y-1541720D01*
X+1901020Y-1488380D01*
X+1901020Y-1275020D01*
X+1847680Y-1221680D01*
X+1580980Y-1221680D01*
X+1634320Y-1061660D02*
X+1580980Y-1008320D01*
X+1580980Y-848300D01*
X+1634320Y-794960D01*
X+1687660Y-794960D01*
X+1741000Y-848300D01*
X+1794340Y-794960D01*
X+1847680Y-794960D01*
X+1901020Y-848300D01*
X+1901020Y-1008320D01*
X+1847680Y-1061660D01*
X+1741000Y-954980D02*
X+1741000Y-848300D01*
D17*
X-1876160Y-3462660D02*
X-839840Y-3462660D01*
X-839840Y-2426340D01*
X-1876160Y-2426340D01*
X-1876160Y-3462660D01*
D71*
X-1612000Y-3008000D02*
X-1612000Y-3008000D01*
D20*
X-1668896Y-3022224D02*
X-1668896Y-2866776D01*
X-1539356Y-2866776D01*
X-1513448Y-2892684D01*
X-1513448Y-2918592D01*
X-1539356Y-2944500D01*
X-1668896Y-2944500D01*
X-1539356Y-2944500D02*
X-1513448Y-2970408D01*
X-1513448Y-3022224D01*
X-1461632Y-2866776D02*
X-1461632Y-2944500D01*
X-1383908Y-3022224D01*
X-1306184Y-2944500D01*
X-1306184Y-2866776D01*
X-1202552Y-2918592D02*
X-1150736Y-2866776D01*
X-1150736Y-3022224D01*
D17*
X-2264160Y+1735840D02*
X-1735840Y+1735840D01*
X-1735840Y+2772160D01*
X-2264160Y+2772160D01*
X-2264160Y+1735840D01*
D71*
X-2000000Y+2000000D02*
X-2000000Y+2000000D01*
D21*
X-2095097Y+2000407D02*
X-1904902Y+2190601D01*
X-1904902Y+2000407D02*
X-2095097Y+2190601D01*
X-2031699Y+2317398D02*
X-2095097Y+2380796D01*
X-1904902Y+2380796D01*
D17*
X-149160Y-3137160D02*
X+887160Y-3137160D01*
X+887160Y-2862840D01*
X-149160Y-2862840D01*
X-149160Y-3137160D01*
D71*
X-12000Y-3000000D02*
X-12000Y-3000000D01*
D22*
X+237327Y-2950623D02*
X+237327Y-3032919D01*
X+253786Y-3049378D01*
X+319622Y-3049378D01*
X+336081Y-3032919D01*
X+336081Y-2950623D01*
X+385459Y-2967082D02*
X+401918Y-2950623D01*
X+451295Y-2950623D01*
X+467754Y-2967082D01*
X+467754Y-2983541D01*
X+451295Y-3000000D01*
X+401918Y-3000000D01*
X+385459Y-3016460D01*
X+385459Y-3049378D01*
X+467754Y-3049378D01*
D23*
X-1716020Y-122080D02*
X-1716938Y-99266D01*
X-1724391Y-53637D01*
X-1739938Y-8008D01*
X-1765180Y+37621D01*
X-1803722Y+83151D01*
X-1849351Y+118647D01*
X-1894980Y+141767D01*
X-1940609Y+155620D01*
X-1986238Y+161566D01*
X-2000000Y+161900D01*
X-2283980Y-122080D02*
X-2283062Y-99266D01*
X-2275609Y-53637D01*
X-2260062Y-8008D01*
X-2234820Y+37621D01*
X-2196278Y+83151D01*
X-2150649Y+118647D01*
X-2105020Y+141767D01*
X-2059391Y+155620D01*
X-2013762Y+161566D01*
X-2000000Y+161900D01*
X-2283980Y-122080D02*
X-2283062Y-144894D01*
X-2275609Y-190523D01*
X-2260062Y-236152D01*
X-2234820Y-281781D01*
X-2196278Y-327311D01*
X-2150649Y-362807D01*
X-2105020Y-385927D01*
X-2059391Y-399780D01*
X-2013762Y-405726D01*
X-2000000Y-406060D01*
X-1716020Y-122080D02*
X-1716938Y-144894D01*
X-1724391Y-190523D01*
X-1739938Y-236152D01*
X-1765180Y-281781D01*
X-1803722Y-327311D01*
X-1849351Y-362807D01*
X-1894980Y-385927D01*
X-1940609Y-399780D01*
X-1986238Y-405726D01*
X-2000000Y-406060D01*
D71*
X-2000000Y-250000D02*
X-2000000Y-250000D01*
D24*
X-1961797Y-160283D02*
X-1942696Y-179384D01*
X-1942696Y-236688D01*
X-1980899Y-274890D01*
X-2019101Y-274890D01*
X-2057304Y-236688D01*
X-2057304Y-179384D01*
X-2038203Y-160283D01*
X-2019101Y-83878D02*
X-2057304Y-45675D01*
X-1942696Y-45675D01*
D23*
X-1466020Y+872080D02*
X-1466938Y+894894D01*
X-1474391Y+940523D01*
X-1489938Y+986152D01*
X-1515180Y+1031781D01*
X-1553722Y+1077311D01*
X-1599351Y+1112807D01*
X-1644980Y+1135927D01*
X-1690609Y+1149780D01*
X-1736238Y+1155726D01*
X-1750000Y+1156060D01*
X-2033980Y+872080D02*
X-2033062Y+894894D01*
X-2025609Y+940523D01*
X-2010062Y+986152D01*
X-1984820Y+1031781D01*
X-1946278Y+1077311D01*
X-1900649Y+1112807D01*
X-1855020Y+1135927D01*
X-1809391Y+1149780D01*
X-1763762Y+1155726D01*
X-1750000Y+1156060D01*
X-2033980Y+872080D02*
X-2033062Y+849266D01*
X-2025609Y+803637D01*
X-2010062Y+758008D01*
X-1984820Y+712379D01*
X-1946278Y+666849D01*
X-1900649Y+631353D01*
X-1855020Y+608233D01*
X-1809391Y+594380D01*
X-1763762Y+588434D01*
X-1750000Y+588100D01*
X-1466020Y+872080D02*
X-1466938Y+849266D01*
X-1474391Y+803637D01*
X-1489938Y+758008D01*
X-1515180Y+712379D01*
X-1553722Y+666849D01*
X-1599351Y+631353D01*
X-1644980Y+608233D01*
X-1690609Y+594380D01*
X-1736238Y+588434D01*
X-1750000Y+588100D01*
D71*
X-1750000Y+1000000D02*
X-1750000Y+1000000D01*
D24*
X-1711797Y+833877D02*
X-1692696Y+814776D01*
X-1692696Y+757472D01*
X-1730899Y+719270D01*
X-1769101Y+719270D01*
X-1807304Y+757472D01*
X-1807304Y+814776D01*
X-1788203Y+833877D01*
X-1788203Y+891181D02*
X-1807304Y+910282D01*
X-1807304Y+967586D01*
X-1788203Y+986687D01*
X-1769101Y+986687D01*
X-1750000Y+967586D01*
X-1750000Y+910282D01*
X-1730899Y+891181D01*
X-1692696Y+891181D01*
X-1692696Y+986687D01*
D17*
X-1974900Y-2036900D02*
X-1797100Y-2036900D01*
X-1797100Y-843100D01*
X-1974900Y-843100D01*
X-1974900Y-2036900D01*
D25*
X-1886000Y-1948000D02*
X-1886000Y-1948000D01*
D26*
X-1853996Y-1525344D02*
X-1918004Y-1525344D01*
X-1918004Y-1472004D01*
X-1907336Y-1461336D01*
X-1896668Y-1461336D01*
X-1886000Y-1472004D01*
X-1886000Y-1525344D01*
X-1886000Y-1472004D02*
X-1875332Y-1461336D01*
X-1853996Y-1461336D01*
X-1918004Y-1375992D02*
X-1918004Y-1429332D01*
X-1896668Y-1429332D01*
X-1896668Y-1386660D01*
X-1886000Y-1375992D01*
X-1864664Y-1375992D01*
X-1853996Y-1386660D01*
X-1853996Y-1418664D01*
X-1864664Y-1429332D01*
D23*
X+1839980Y-3048920D02*
X+1839062Y-3026106D01*
X+1831609Y-2980477D01*
X+1816062Y-2934848D01*
X+1790820Y-2889219D01*
X+1752278Y-2843689D01*
X+1706649Y-2808193D01*
X+1661020Y-2785073D01*
X+1615391Y-2771220D01*
X+1569762Y-2765274D01*
X+1556000Y-2764940D01*
X+1272020Y-3048920D02*
X+1272938Y-3026106D01*
X+1280391Y-2980477D01*
X+1295938Y-2934848D01*
X+1321180Y-2889219D01*
X+1359722Y-2843689D01*
X+1405351Y-2808193D01*
X+1450980Y-2785073D01*
X+1496609Y-2771220D01*
X+1542238Y-2765274D01*
X+1556000Y-2764940D01*
X+1272020Y-3048920D02*
X+1272938Y-3071734D01*
X+1280391Y-3117363D01*
X+1295938Y-3162992D01*
X+1321180Y-3208621D01*
X+1359722Y-3254151D01*
X+1405351Y-3289647D01*
X+1450980Y-3312767D01*
X+1496609Y-3326620D01*
X+1542238Y-3332566D01*
X+1556000Y-3332900D01*
X+1839980Y-3048920D02*
X+1839062Y-3071734D01*
X+1831609Y-3117363D01*
X+1816062Y-3162992D01*
X+1790820Y-3208621D01*
X+1752278Y-3254151D01*
X+1706649Y-3289647D01*
X+1661020Y-3312767D01*
X+1615391Y-3326620D01*
X+1569762Y-3332566D01*
X+1556000Y-3332900D01*
D71*
X+1556000Y-2921000D02*
X+1556000Y-2921000D01*
D24*
X+1594203Y-3087123D02*
X+1613304Y-3106224D01*
X+1613304Y-3163528D01*
X+1575101Y-3201730D01*
X+1536899Y-3201730D01*
X+1498696Y-3163528D01*
X+1498696Y-3106224D01*
X+1517797Y-3087123D01*
X+1517797Y-3029819D02*
X+1498696Y-3010718D01*
X+1498696Y-2953414D01*
X+1517797Y-2934313D01*
X+1536899Y-2934313D01*
X+1556000Y-2953414D01*
X+1575101Y-2934313D01*
X+1594203Y-2934313D01*
X+1613304Y-2953414D01*
X+1613304Y-3010718D01*
X+1594203Y-3029819D01*
X+1556000Y-2991617D02*
X+1556000Y-2953414D01*
D17*
X+1832100Y+224100D02*
X+2009900Y+224100D01*
X+2009900Y+1417900D01*
X+1832100Y+1417900D01*
X+1832100Y+224100D01*
D25*
X+1921000Y+1329000D02*
X+1921000Y+1329000D01*
D26*
X+1953004Y+735656D02*
X+1888996Y+735656D01*
X+1888996Y+788996D01*
X+1899664Y+799664D01*
X+1910332Y+799664D01*
X+1921000Y+788996D01*
X+1921000Y+735656D01*
X+1921000Y+788996D02*
X+1931668Y+799664D01*
X+1953004Y+799664D01*
X+1910332Y+842336D02*
X+1888996Y+863672D01*
X+1953004Y+863672D01*
D17*
X+1959100Y+1994100D02*
X+2136900Y+1994100D01*
X+2136900Y+3187900D01*
X+1959100Y+3187900D01*
X+1959100Y+1994100D01*
D25*
X+2048000Y+2083000D02*
X+2048000Y+2083000D01*
D26*
X+2080004Y+2505656D02*
X+2015996Y+2505656D01*
X+2015996Y+2558996D01*
X+2026664Y+2569664D01*
X+2037332Y+2569664D01*
X+2048000Y+2558996D01*
X+2048000Y+2505656D01*
X+2048000Y+2558996D02*
X+2058668Y+2569664D01*
X+2080004Y+2569664D01*
X+2026664Y+2601668D02*
X+2015996Y+2612336D01*
X+2015996Y+2644340D01*
X+2026664Y+2655008D01*
X+2037332Y+2655008D01*
X+2048000Y+2644340D01*
X+2048000Y+2612336D01*
X+2058668Y+2601668D01*
X+2080004Y+2601668D01*
X+2080004Y+2655008D01*
D17*
X+1197100Y+1994100D02*
X+1374900Y+1994100D01*
X+1374900Y+3187900D01*
X+1197100Y+3187900D01*
X+1197100Y+1994100D01*
D25*
X+1286000Y+2083000D02*
X+1286000Y+2083000D01*
D26*
X+1318004Y+2505656D02*
X+1253996Y+2505656D01*
X+1253996Y+2558996D01*
X+1264664Y+2569664D01*
X+1275332Y+2569664D01*
X+1286000Y+2558996D01*
X+1286000Y+2505656D01*
X+1286000Y+2558996D02*
X+1296668Y+2569664D01*
X+1318004Y+2569664D01*
X+1264664Y+2601668D02*
X+1253996Y+2612336D01*
X+1253996Y+2644340D01*
X+1264664Y+2655008D01*
X+1275332Y+2655008D01*
X+1286000Y+2644340D01*
X+1296668Y+2655008D01*
X+1307336Y+2655008D01*
X+1318004Y+2644340D01*
X+1318004Y+2612336D01*
X+1307336Y+2601668D01*
X+1286000Y+2623004D02*
X+1286000Y+2644340D01*
D17*
X+1078100Y+244100D02*
X+1255900Y+244100D01*
X+1255900Y+1437900D01*
X+1078100Y+1437900D01*
X+1078100Y+244100D01*
D25*
X+1167000Y+333000D02*
X+1167000Y+333000D01*
D26*
X+1199004Y+755656D02*
X+1134996Y+755656D01*
X+1134996Y+808996D01*
X+1145664Y+819664D01*
X+1156332Y+819664D01*
X+1167000Y+808996D01*
X+1167000Y+755656D01*
X+1167000Y+808996D02*
X+1177668Y+819664D01*
X+1199004Y+819664D01*
X+1177668Y+905008D02*
X+1177668Y+841000D01*
X+1134996Y+883672D01*
X+1199004Y+883672D01*
D17*
X-1121160Y-4891160D02*
X+677160Y-4891160D01*
X+677160Y-4362840D01*
X-1121160Y-4362840D01*
X-1121160Y-4891160D01*
D71*
X+540000Y-4500000D02*
X+540000Y-4500000D01*
D21*
X-729186Y-4531903D02*
X-729186Y-4722098D01*
X-538992Y-4722098D01*
X-285399Y-4690399D02*
X-317098Y-4722098D01*
X-412195Y-4722098D01*
X-475593Y-4658700D01*
X-475593Y-4595301D01*
X-412195Y-4531903D01*
X-317098Y-4531903D01*
X-285399Y-4563602D01*
X-222000Y-4722098D02*
X-222000Y-4531903D01*
X-95204Y-4531903D01*
X-31806Y-4595301D01*
X-31806Y-4658700D01*
X-95204Y-4722098D01*
X-222000Y-4722098D01*
X+94991Y-4595301D02*
X+158389Y-4531903D01*
X+158389Y-4722098D01*
D17*
X-3145160Y-1764160D02*
X-2362840Y-1764160D01*
X-2362840Y-1362840D01*
X-3145160Y-1362840D01*
X-3145160Y-1764160D01*
D71*
X-2500000Y-1500000D02*
X-2500000Y-1500000D01*
D27*
X-2946633Y-1491263D02*
X-2946633Y-1611659D01*
X-2922554Y-1635738D01*
X-2826238Y-1635738D01*
X-2802159Y-1611659D01*
X-2802159Y-1491263D01*
X-2609526Y-1587580D02*
X-2754000Y-1587580D01*
X-2657684Y-1491263D01*
X-2657684Y-1635738D01*
M02*
