M48
METRIC,TZ
T01C0.3810
T02C0.7620
T03C1.0160
T04C3.6000
%
T01
X+16245Y+24050
X-2170Y-34370
X+7054Y-25088
X-9298Y-37946
X-7185Y-34702
X-6083Y-22835
X-14192Y+30076
X-5000Y-34370
X-7250Y-36910
X-10191Y-39943
X-12500Y-22500
X-15000Y+15000
X-17500Y+15000
X-3254Y-49634
X-23810Y-42560
X-21776Y-21356
X-12266Y+7430
X-11094Y+11388
T02
X-9790Y+27860
X-9790Y+25320
X-9790Y+22780
X-9790Y+20240
X-9790Y+17700
X-9790Y+15160
X-9790Y+12620
X-9790Y+10080
X-9790Y+7540
X-9790Y+5000
X-9790Y+2460
X-9790Y-80
X-9790Y-2620
X-9790Y-5160
X-9790Y-7700
X-9790Y-10240
X-9790Y-12780
X-9790Y-15320
X-9790Y-17860
X-9790Y-20400
X+5450Y-20400
X+5450Y-17860
X+5450Y-15320
X+5450Y-12780
X+5450Y-10240
X+5450Y-7700
X+5450Y-5160
X+5450Y-2620
X+5450Y-80
X+5450Y+2460
X+5450Y+5000
X+5450Y+7540
X+5450Y+10080
X+5450Y+12620
X+5450Y+15160
X+5450Y+17700
X+5450Y+20240
X+5450Y+22780
X+5450Y+25320
X+5450Y+27860
X+13600Y-2260
X+13600Y-4800
X+13600Y-7340
X+13600Y-9880
X+13600Y-12420
X+13600Y-14960
X+13600Y-17500
X+13600Y-20040
X+21220Y-20040
X+21220Y-17500
X+21220Y-14960
X+21220Y-12420
X+21220Y-9880
X+21220Y-7340
X+21220Y-4800
X+21220Y-2260
X-16120Y-30080
X-11040Y-30080
X-13580Y-32620
X-20000Y+20000
X-20000Y+25080
X-20000Y+40
X-20000Y-2500
X-17500Y+7460
X-17500Y+10000
X-18860Y-19480
X-18860Y-9320
X+15560Y-31750
X+15560Y-29210
X+19210Y+13290
X+19210Y+3130
X+20480Y+20830
X+20480Y+30990
X+12860Y+20830
X+12860Y+30990
X+11670Y+3330
X+11670Y+13490
T03
X-120Y-30000
X+2420Y-30000
X+4960Y-30000
X+7500Y-30000
X+5400Y-45000
X+2860Y-45000
X+320Y-45000
X-2220Y-45000
X-4760Y-45000
X-7300Y-45000
X-9840Y-45000
X-9840Y-47540
X-7300Y-47540
X-4760Y-47540
X-2220Y-47540
X+320Y-47540
X+2860Y-47540
X+5400Y-47540
X-25000Y-15000
X-27540Y-15000
X-30080Y-15000
T04
X-37500Y+35000
X+30000Y+35000
X+30000Y-55000
X-37500Y-55000
M30
