G04 PROTEUS RS274X GERBER FILE*
%FSLAX45Y45*%
%MOMM*%
G01*
%ADD17C,0.203200*%
%ADD18C,0.127000*%
%ADD19C,0.063500*%
D17*
X+1624500Y+2468500D02*
X+1624500Y+2341500D01*
X+1561000Y+2405000D02*
X+1688000Y+2405000D01*
X-217000Y-3373500D02*
X-217000Y-3500500D01*
X-280500Y-3437000D02*
X-153500Y-3437000D01*
X+705414Y-2445266D02*
X+705414Y-2572266D01*
X+641914Y-2508766D02*
X+768914Y-2508766D01*
X-929783Y-3731111D02*
X-929783Y-3858111D01*
X-993283Y-3794611D02*
X-866283Y-3794611D01*
X-718499Y-3406743D02*
X-718499Y-3533743D01*
X-781999Y-3470243D02*
X-654999Y-3470243D01*
X-608264Y-2219972D02*
X-608264Y-2346972D01*
X-671764Y-2283472D02*
X-544764Y-2283472D01*
X-1419150Y+3071091D02*
X-1419150Y+2944091D01*
X-1482650Y+3007591D02*
X-1355650Y+3007591D01*
X-500000Y-3373500D02*
X-500000Y-3500500D01*
X-563500Y-3437000D02*
X-436500Y-3437000D01*
X-725000Y-3627500D02*
X-725000Y-3754500D01*
X-788500Y-3691000D02*
X-661500Y-3691000D01*
X-1019100Y-3930804D02*
X-1019100Y-4057804D01*
X-1082600Y-3994304D02*
X-955600Y-3994304D01*
X-1250000Y-2186500D02*
X-1250000Y-2313500D01*
X-1313500Y-2250000D02*
X-1186500Y-2250000D01*
X-1500000Y+1563500D02*
X-1500000Y+1436500D01*
X-1563500Y+1500000D02*
X-1436500Y+1500000D01*
X-1750000Y+1563500D02*
X-1750000Y+1436500D01*
X-1813500Y+1500000D02*
X-1686500Y+1500000D01*
X-325447Y-4899901D02*
X-325447Y-5026901D01*
X-388947Y-4963401D02*
X-261947Y-4963401D01*
X-2381023Y-4192460D02*
X-2381023Y-4319460D01*
X-2444523Y-4255960D02*
X-2317523Y-4255960D01*
X-2177604Y-2072129D02*
X-2177604Y-2199129D01*
X-2241104Y-2135629D02*
X-2114104Y-2135629D01*
X-1226640Y+806465D02*
X-1226640Y+679465D01*
X-1290140Y+742965D02*
X-1163140Y+742965D01*
X-1109352Y+1202307D02*
X-1109352Y+1075307D01*
X-1172852Y+1138807D02*
X-1045852Y+1138807D01*
X-1023901Y+2830901D02*
X-934099Y+2741099D01*
X-1023901Y+2741099D02*
X-934099Y+2830901D01*
X-1023901Y+2576901D02*
X-934099Y+2487099D01*
X-1023901Y+2487099D02*
X-934099Y+2576901D01*
X-1023901Y+2322901D02*
X-934099Y+2233099D01*
X-1023901Y+2233099D02*
X-934099Y+2322901D01*
X-1023901Y+2068901D02*
X-934099Y+1979099D01*
X-1023901Y+1979099D02*
X-934099Y+2068901D01*
X-1023901Y+1814901D02*
X-934099Y+1725099D01*
X-1023901Y+1725099D02*
X-934099Y+1814901D01*
X-1023901Y+1560901D02*
X-934099Y+1471099D01*
X-1023901Y+1471099D02*
X-934099Y+1560901D01*
X-1023901Y+1306901D02*
X-934099Y+1217099D01*
X-1023901Y+1217099D02*
X-934099Y+1306901D01*
X-1023901Y+1052901D02*
X-934099Y+963099D01*
X-1023901Y+963099D02*
X-934099Y+1052901D01*
X-1023901Y+798901D02*
X-934099Y+709099D01*
X-1023901Y+709099D02*
X-934099Y+798901D01*
X-1023901Y+544901D02*
X-934099Y+455099D01*
X-1023901Y+455099D02*
X-934099Y+544901D01*
X-1023901Y+290901D02*
X-934099Y+201099D01*
X-1023901Y+201099D02*
X-934099Y+290901D01*
X-1023901Y+36901D02*
X-934099Y-52901D01*
X-1023901Y-52901D02*
X-934099Y+36901D01*
X-1023901Y-217099D02*
X-934099Y-306901D01*
X-1023901Y-306901D02*
X-934099Y-217099D01*
X-1023901Y-471099D02*
X-934099Y-560901D01*
X-1023901Y-560901D02*
X-934099Y-471099D01*
X-1023901Y-725099D02*
X-934099Y-814901D01*
X-1023901Y-814901D02*
X-934099Y-725099D01*
X-1023901Y-979099D02*
X-934099Y-1068901D01*
X-1023901Y-1068901D02*
X-934099Y-979099D01*
X-1023901Y-1233099D02*
X-934099Y-1322901D01*
X-1023901Y-1322901D02*
X-934099Y-1233099D01*
X-1023901Y-1487099D02*
X-934099Y-1576901D01*
X-1023901Y-1576901D02*
X-934099Y-1487099D01*
X-1023901Y-1741099D02*
X-934099Y-1830901D01*
X-1023901Y-1830901D02*
X-934099Y-1741099D01*
X-1023901Y-1995099D02*
X-934099Y-2084901D01*
X-1023901Y-2084901D02*
X-934099Y-1995099D01*
X+500099Y-1995099D02*
X+589901Y-2084901D01*
X+500099Y-2084901D02*
X+589901Y-1995099D01*
X+500099Y-1741099D02*
X+589901Y-1830901D01*
X+500099Y-1830901D02*
X+589901Y-1741099D01*
X+500099Y-1487099D02*
X+589901Y-1576901D01*
X+500099Y-1576901D02*
X+589901Y-1487099D01*
X+500099Y-1233099D02*
X+589901Y-1322901D01*
X+500099Y-1322901D02*
X+589901Y-1233099D01*
X+500099Y-979099D02*
X+589901Y-1068901D01*
X+500099Y-1068901D02*
X+589901Y-979099D01*
X+500099Y-725099D02*
X+589901Y-814901D01*
X+500099Y-814901D02*
X+589901Y-725099D01*
X+500099Y-471099D02*
X+589901Y-560901D01*
X+500099Y-560901D02*
X+589901Y-471099D01*
X+500099Y-217099D02*
X+589901Y-306901D01*
X+500099Y-306901D02*
X+589901Y-217099D01*
X+500099Y+36901D02*
X+589901Y-52901D01*
X+500099Y-52901D02*
X+589901Y+36901D01*
X+500099Y+290901D02*
X+589901Y+201099D01*
X+500099Y+201099D02*
X+589901Y+290901D01*
X+500099Y+544901D02*
X+589901Y+455099D01*
X+500099Y+455099D02*
X+589901Y+544901D01*
X+500099Y+798901D02*
X+589901Y+709099D01*
X+500099Y+709099D02*
X+589901Y+798901D01*
X+500099Y+1052901D02*
X+589901Y+963099D01*
X+500099Y+963099D02*
X+589901Y+1052901D01*
X+500099Y+1306901D02*
X+589901Y+1217099D01*
X+500099Y+1217099D02*
X+589901Y+1306901D01*
X+500099Y+1560901D02*
X+589901Y+1471099D01*
X+500099Y+1471099D02*
X+589901Y+1560901D01*
X+500099Y+1814901D02*
X+589901Y+1725099D01*
X+500099Y+1725099D02*
X+589901Y+1814901D01*
X+500099Y+2068901D02*
X+589901Y+1979099D01*
X+500099Y+1979099D02*
X+589901Y+2068901D01*
X+500099Y+2322901D02*
X+589901Y+2233099D01*
X+500099Y+2233099D02*
X+589901Y+2322901D01*
X+500099Y+2576901D02*
X+589901Y+2487099D01*
X+500099Y+2487099D02*
X+589901Y+2576901D01*
X+500099Y+2830901D02*
X+589901Y+2741099D01*
X+500099Y+2741099D02*
X+589901Y+2830901D01*
X+1315099Y-181099D02*
X+1404901Y-270901D01*
X+1315099Y-270901D02*
X+1404901Y-181099D01*
X+1315099Y-435099D02*
X+1404901Y-524901D01*
X+1315099Y-524901D02*
X+1404901Y-435099D01*
X+1315099Y-689099D02*
X+1404901Y-778901D01*
X+1315099Y-778901D02*
X+1404901Y-689099D01*
X+1315099Y-943099D02*
X+1404901Y-1032901D01*
X+1315099Y-1032901D02*
X+1404901Y-943099D01*
X+1315099Y-1197099D02*
X+1404901Y-1286901D01*
X+1315099Y-1286901D02*
X+1404901Y-1197099D01*
X+1315099Y-1451099D02*
X+1404901Y-1540901D01*
X+1315099Y-1540901D02*
X+1404901Y-1451099D01*
X+1315099Y-1705099D02*
X+1404901Y-1794901D01*
X+1315099Y-1794901D02*
X+1404901Y-1705099D01*
X+1315099Y-1959099D02*
X+1404901Y-2048901D01*
X+1315099Y-2048901D02*
X+1404901Y-1959099D01*
X+2077099Y-1959099D02*
X+2166901Y-2048901D01*
X+2077099Y-2048901D02*
X+2166901Y-1959099D01*
X+2077099Y-1705099D02*
X+2166901Y-1794901D01*
X+2077099Y-1794901D02*
X+2166901Y-1705099D01*
X+2077099Y-1451099D02*
X+2166901Y-1540901D01*
X+2077099Y-1540901D02*
X+2166901Y-1451099D01*
X+2077099Y-1197099D02*
X+2166901Y-1286901D01*
X+2077099Y-1286901D02*
X+2166901Y-1197099D01*
X+2077099Y-943099D02*
X+2166901Y-1032901D01*
X+2077099Y-1032901D02*
X+2166901Y-943099D01*
X+2077099Y-689099D02*
X+2166901Y-778901D01*
X+2077099Y-778901D02*
X+2166901Y-689099D01*
X+2077099Y-435099D02*
X+2166901Y-524901D01*
X+2077099Y-524901D02*
X+2166901Y-435099D01*
X+2077099Y-181099D02*
X+2166901Y-270901D01*
X+2077099Y-270901D02*
X+2166901Y-181099D01*
X-1656901Y-2963099D02*
X-1567099Y-3052901D01*
X-1656901Y-3052901D02*
X-1567099Y-2963099D01*
X-1148901Y-2963099D02*
X-1059099Y-3052901D01*
X-1148901Y-3052901D02*
X-1059099Y-2963099D01*
X-1402901Y-3217099D02*
X-1313099Y-3306901D01*
X-1402901Y-3306901D02*
X-1313099Y-3217099D01*
X-2044901Y+2044901D02*
X-1955099Y+1955099D01*
X-2044901Y+1955099D02*
X-1955099Y+2044901D01*
X-2044901Y+2552901D02*
X-1955099Y+2463099D01*
X-2044901Y+2463099D02*
X-1955099Y+2552901D01*
X-12000Y-2936500D02*
X-12000Y-3063500D01*
X-75500Y-3000000D02*
X+51500Y-3000000D01*
X-56901Y-2955099D02*
X+32901Y-3044901D01*
X-56901Y-3044901D02*
X+32901Y-2955099D01*
X+242000Y-2936500D02*
X+242000Y-3063500D01*
X+178500Y-3000000D02*
X+305500Y-3000000D01*
X+197099Y-2955099D02*
X+286901Y-3044901D01*
X+197099Y-3044901D02*
X+286901Y-2955099D01*
X+496000Y-2936500D02*
X+496000Y-3063500D01*
X+432500Y-3000000D02*
X+559500Y-3000000D01*
X+451099Y-2955099D02*
X+540901Y-3044901D01*
X+451099Y-3044901D02*
X+540901Y-2955099D01*
X+750000Y-2936500D02*
X+750000Y-3063500D01*
X+686500Y-3000000D02*
X+813500Y-3000000D01*
X+705099Y-2955099D02*
X+794901Y-3044901D01*
X+705099Y-3044901D02*
X+794901Y-2955099D01*
X-2044901Y+48901D02*
X-1955099Y-40901D01*
X-2044901Y-40901D02*
X-1955099Y+48901D01*
X-2044901Y-205099D02*
X-1955099Y-294901D01*
X-2044901Y-294901D02*
X-1955099Y-205099D01*
X-1794901Y+790901D02*
X-1705099Y+701099D01*
X-1794901Y+701099D02*
X-1705099Y+790901D01*
X-1794901Y+1044901D02*
X-1705099Y+955099D01*
X-1794901Y+955099D02*
X-1705099Y+1044901D01*
X-1930901Y-1903099D02*
X-1841099Y-1992901D01*
X-1930901Y-1992901D02*
X-1841099Y-1903099D01*
X-1930901Y-887099D02*
X-1841099Y-976901D01*
X-1930901Y-976901D02*
X-1841099Y-887099D01*
X+1511099Y-3130099D02*
X+1600901Y-3219901D01*
X+1511099Y-3219901D02*
X+1600901Y-3130099D01*
X+1511099Y-2876099D02*
X+1600901Y-2965901D01*
X+1511099Y-2965901D02*
X+1600901Y-2876099D01*
X+1876099Y+1373901D02*
X+1965901Y+1284099D01*
X+1876099Y+1284099D02*
X+1965901Y+1373901D01*
X+1876099Y+357901D02*
X+1965901Y+268099D01*
X+1876099Y+268099D02*
X+1965901Y+357901D01*
X+2003099Y+2127901D02*
X+2092901Y+2038099D01*
X+2003099Y+2038099D02*
X+2092901Y+2127901D01*
X+2003099Y+3143901D02*
X+2092901Y+3054099D01*
X+2003099Y+3054099D02*
X+2092901Y+3143901D01*
X+1241099Y+2127901D02*
X+1330901Y+2038099D01*
X+1241099Y+2038099D02*
X+1330901Y+2127901D01*
X+1241099Y+3143901D02*
X+1330901Y+3054099D01*
X+1241099Y+3054099D02*
X+1330901Y+3143901D01*
X+1122099Y+377901D02*
X+1211901Y+288099D01*
X+1122099Y+288099D02*
X+1211901Y+377901D01*
X+1122099Y+1393901D02*
X+1211901Y+1304099D01*
X+1122099Y+1304099D02*
X+1211901Y+1393901D01*
X-3686500Y+3500000D02*
X-3686717Y+3505247D01*
X-3688482Y+3515742D01*
X-3692174Y+3526237D01*
X-3698202Y+3536732D01*
X-3707424Y+3547112D01*
X-3717919Y+3554800D01*
X-3728414Y+3559718D01*
X-3738909Y+3562524D01*
X-3749404Y+3563497D01*
X-3750000Y+3563500D01*
X-3813500Y+3500000D02*
X-3813283Y+3505247D01*
X-3811518Y+3515742D01*
X-3807826Y+3526237D01*
X-3801798Y+3536732D01*
X-3792576Y+3547112D01*
X-3782081Y+3554800D01*
X-3771586Y+3559718D01*
X-3761091Y+3562524D01*
X-3750596Y+3563497D01*
X-3750000Y+3563500D01*
X-3813500Y+3500000D02*
X-3813283Y+3494753D01*
X-3811518Y+3484258D01*
X-3807826Y+3473763D01*
X-3801798Y+3463268D01*
X-3792576Y+3452888D01*
X-3782081Y+3445200D01*
X-3771586Y+3440282D01*
X-3761091Y+3437476D01*
X-3750596Y+3436503D01*
X-3750000Y+3436500D01*
X-3686500Y+3500000D02*
X-3686717Y+3494753D01*
X-3688482Y+3484258D01*
X-3692174Y+3473763D01*
X-3698202Y+3463268D01*
X-3707424Y+3452888D01*
X-3717919Y+3445200D01*
X-3728414Y+3440282D01*
X-3738909Y+3437476D01*
X-3749404Y+3436503D01*
X-3750000Y+3436500D01*
X-3750000Y+3563500D02*
X-3750000Y+3436500D01*
X-3813500Y+3500000D02*
X-3686500Y+3500000D01*
X+3063500Y+3500000D02*
X+3063283Y+3505247D01*
X+3061518Y+3515742D01*
X+3057826Y+3526237D01*
X+3051798Y+3536732D01*
X+3042576Y+3547112D01*
X+3032081Y+3554800D01*
X+3021586Y+3559718D01*
X+3011091Y+3562524D01*
X+3000596Y+3563497D01*
X+3000000Y+3563500D01*
X+2936500Y+3500000D02*
X+2936717Y+3505247D01*
X+2938482Y+3515742D01*
X+2942174Y+3526237D01*
X+2948202Y+3536732D01*
X+2957424Y+3547112D01*
X+2967919Y+3554800D01*
X+2978414Y+3559718D01*
X+2988909Y+3562524D01*
X+2999404Y+3563497D01*
X+3000000Y+3563500D01*
X+2936500Y+3500000D02*
X+2936717Y+3494753D01*
X+2938482Y+3484258D01*
X+2942174Y+3473763D01*
X+2948202Y+3463268D01*
X+2957424Y+3452888D01*
X+2967919Y+3445200D01*
X+2978414Y+3440282D01*
X+2988909Y+3437476D01*
X+2999404Y+3436503D01*
X+3000000Y+3436500D01*
X+3063500Y+3500000D02*
X+3063283Y+3494753D01*
X+3061518Y+3484258D01*
X+3057826Y+3473763D01*
X+3051798Y+3463268D01*
X+3042576Y+3452888D01*
X+3032081Y+3445200D01*
X+3021586Y+3440282D01*
X+3011091Y+3437476D01*
X+3000596Y+3436503D01*
X+3000000Y+3436500D01*
X+3000000Y+3563500D02*
X+3000000Y+3436500D01*
X+2936500Y+3500000D02*
X+3063500Y+3500000D01*
X+3063500Y-5500000D02*
X+3063283Y-5494753D01*
X+3061518Y-5484258D01*
X+3057826Y-5473763D01*
X+3051798Y-5463268D01*
X+3042576Y-5452888D01*
X+3032081Y-5445200D01*
X+3021586Y-5440282D01*
X+3011091Y-5437476D01*
X+3000596Y-5436503D01*
X+3000000Y-5436500D01*
X+2936500Y-5500000D02*
X+2936717Y-5494753D01*
X+2938482Y-5484258D01*
X+2942174Y-5473763D01*
X+2948202Y-5463268D01*
X+2957424Y-5452888D01*
X+2967919Y-5445200D01*
X+2978414Y-5440282D01*
X+2988909Y-5437476D01*
X+2999404Y-5436503D01*
X+3000000Y-5436500D01*
X+2936500Y-5500000D02*
X+2936717Y-5505247D01*
X+2938482Y-5515742D01*
X+2942174Y-5526237D01*
X+2948202Y-5536732D01*
X+2957424Y-5547112D01*
X+2967919Y-5554800D01*
X+2978414Y-5559718D01*
X+2988909Y-5562524D01*
X+2999404Y-5563497D01*
X+3000000Y-5563500D01*
X+3063500Y-5500000D02*
X+3063283Y-5505247D01*
X+3061518Y-5515742D01*
X+3057826Y-5526237D01*
X+3051798Y-5536732D01*
X+3042576Y-5547112D01*
X+3032081Y-5554800D01*
X+3021586Y-5559718D01*
X+3011091Y-5562524D01*
X+3000596Y-5563497D01*
X+3000000Y-5563500D01*
X+3000000Y-5436500D02*
X+3000000Y-5563500D01*
X+2936500Y-5500000D02*
X+3063500Y-5500000D01*
X-3686500Y-5500000D02*
X-3686717Y-5494753D01*
X-3688482Y-5484258D01*
X-3692174Y-5473763D01*
X-3698202Y-5463268D01*
X-3707424Y-5452888D01*
X-3717919Y-5445200D01*
X-3728414Y-5440282D01*
X-3738909Y-5437476D01*
X-3749404Y-5436503D01*
X-3750000Y-5436500D01*
X-3813500Y-5500000D02*
X-3813283Y-5494753D01*
X-3811518Y-5484258D01*
X-3807826Y-5473763D01*
X-3801798Y-5463268D01*
X-3792576Y-5452888D01*
X-3782081Y-5445200D01*
X-3771586Y-5440282D01*
X-3761091Y-5437476D01*
X-3750596Y-5436503D01*
X-3750000Y-5436500D01*
X-3813500Y-5500000D02*
X-3813283Y-5505247D01*
X-3811518Y-5515742D01*
X-3807826Y-5526237D01*
X-3801798Y-5536732D01*
X-3792576Y-5547112D01*
X-3782081Y-5554800D01*
X-3771586Y-5559718D01*
X-3761091Y-5562524D01*
X-3750596Y-5563497D01*
X-3750000Y-5563500D01*
X-3686500Y-5500000D02*
X-3686717Y-5505247D01*
X-3688482Y-5515742D01*
X-3692174Y-5526237D01*
X-3698202Y-5536732D01*
X-3707424Y-5547112D01*
X-3717919Y-5554800D01*
X-3728414Y-5559718D01*
X-3738909Y-5562524D01*
X-3749404Y-5563497D01*
X-3750000Y-5563500D01*
X-3750000Y-5436500D02*
X-3750000Y-5563500D01*
X-3813500Y-5500000D02*
X-3686500Y-5500000D01*
X+540000Y-4436500D02*
X+540000Y-4563500D01*
X+476500Y-4500000D02*
X+603500Y-4500000D01*
X+495099Y-4455099D02*
X+584901Y-4544901D01*
X+495099Y-4544901D02*
X+584901Y-4455099D01*
X+286000Y-4436500D02*
X+286000Y-4563500D01*
X+222500Y-4500000D02*
X+349500Y-4500000D01*
X+241099Y-4455099D02*
X+330901Y-4544901D01*
X+241099Y-4544901D02*
X+330901Y-4455099D01*
X+32000Y-4436500D02*
X+32000Y-4563500D01*
X-31500Y-4500000D02*
X+95500Y-4500000D01*
X-12901Y-4455099D02*
X+76901Y-4544901D01*
X-12901Y-4544901D02*
X+76901Y-4455099D01*
X-222000Y-4436500D02*
X-222000Y-4563500D01*
X-285500Y-4500000D02*
X-158500Y-4500000D01*
X-266901Y-4455099D02*
X-177099Y-4544901D01*
X-266901Y-4544901D02*
X-177099Y-4455099D01*
X-476000Y-4436500D02*
X-476000Y-4563500D01*
X-539500Y-4500000D02*
X-412500Y-4500000D01*
X-520901Y-4455099D02*
X-431099Y-4544901D01*
X-520901Y-4544901D02*
X-431099Y-4455099D01*
X-730000Y-4436500D02*
X-730000Y-4563500D01*
X-793500Y-4500000D02*
X-666500Y-4500000D01*
X-774901Y-4455099D02*
X-685099Y-4544901D01*
X-774901Y-4544901D02*
X-685099Y-4455099D01*
X-984000Y-4436500D02*
X-984000Y-4563500D01*
X-1047500Y-4500000D02*
X-920500Y-4500000D01*
X-1028901Y-4455099D02*
X-939099Y-4544901D01*
X-1028901Y-4544901D02*
X-939099Y-4455099D01*
X-984000Y-4690500D02*
X-984000Y-4817500D01*
X-1047500Y-4754000D02*
X-920500Y-4754000D01*
X-1028901Y-4709099D02*
X-939099Y-4798901D01*
X-1028901Y-4798901D02*
X-939099Y-4709099D01*
X-730000Y-4690500D02*
X-730000Y-4817500D01*
X-793500Y-4754000D02*
X-666500Y-4754000D01*
X-774901Y-4709099D02*
X-685099Y-4798901D01*
X-774901Y-4798901D02*
X-685099Y-4709099D01*
X-476000Y-4690500D02*
X-476000Y-4817500D01*
X-539500Y-4754000D02*
X-412500Y-4754000D01*
X-520901Y-4709099D02*
X-431099Y-4798901D01*
X-520901Y-4798901D02*
X-431099Y-4709099D01*
X-222000Y-4690500D02*
X-222000Y-4817500D01*
X-285500Y-4754000D02*
X-158500Y-4754000D01*
X-266901Y-4709099D02*
X-177099Y-4798901D01*
X-266901Y-4798901D02*
X-177099Y-4709099D01*
X+32000Y-4690500D02*
X+32000Y-4817500D01*
X-31500Y-4754000D02*
X+95500Y-4754000D01*
X-12901Y-4709099D02*
X+76901Y-4798901D01*
X-12901Y-4798901D02*
X+76901Y-4709099D01*
X+286000Y-4690500D02*
X+286000Y-4817500D01*
X+222500Y-4754000D02*
X+349500Y-4754000D01*
X+241099Y-4709099D02*
X+330901Y-4798901D01*
X+241099Y-4798901D02*
X+330901Y-4709099D01*
X+540000Y-4690500D02*
X+540000Y-4817500D01*
X+476500Y-4754000D02*
X+603500Y-4754000D01*
X+495099Y-4709099D02*
X+584901Y-4798901D01*
X+495099Y-4798901D02*
X+584901Y-4709099D01*
X-2500000Y-1436500D02*
X-2500000Y-1563500D01*
X-2563500Y-1500000D02*
X-2436500Y-1500000D01*
X-2544901Y-1455099D02*
X-2455099Y-1544901D01*
X-2544901Y-1544901D02*
X-2455099Y-1455099D01*
X-2754000Y-1436500D02*
X-2754000Y-1563500D01*
X-2817500Y-1500000D02*
X-2690500Y-1500000D01*
X-2798901Y-1455099D02*
X-2709099Y-1544901D01*
X-2798901Y-1544901D02*
X-2709099Y-1455099D01*
X-3008000Y-1436500D02*
X-3008000Y-1563500D01*
X-3071500Y-1500000D02*
X-2944500Y-1500000D01*
X-3052901Y-1455099D02*
X-2963099Y-1544901D01*
X-3052901Y-1544901D02*
X-2963099Y-1455099D01*
D18*
X-4260160Y-7508760D02*
X-1616020Y-7508760D01*
X-1616020Y-6264160D01*
X-4260160Y-6264160D01*
X-4260160Y-7508760D01*
D19*
X-3792798Y-6264160D02*
X-3792798Y-7508760D01*
X-2979998Y-6264160D02*
X-2979998Y-7508760D01*
X-2146878Y-6264160D02*
X-2146878Y-7508760D01*
X-4260160Y-6537210D02*
X-1616020Y-6537210D01*
X-4260160Y-6778510D02*
X-1616020Y-6778510D01*
X-4260160Y-7019810D02*
X-1616020Y-7019810D01*
X-4260160Y-7261110D02*
X-1616020Y-7261110D01*
D18*
X-4203010Y-6427990D02*
X-4187770Y-6443230D01*
X-4126810Y-6443230D01*
X-4111570Y-6427990D01*
X-4111570Y-6412750D01*
X-4126810Y-6397510D01*
X-4187770Y-6397510D01*
X-4203010Y-6382270D01*
X-4203010Y-6367030D01*
X-4187770Y-6351790D01*
X-4126810Y-6351790D01*
X-4111570Y-6367030D01*
X-3989650Y-6351790D02*
X-4081090Y-6443230D01*
X-4081090Y-6351790D02*
X-4035370Y-6397510D01*
X-3959170Y-6443230D02*
X-3959170Y-6351790D01*
X-3913450Y-6397510D01*
X-3867730Y-6351790D01*
X-3867730Y-6443230D01*
X-3735650Y-6427990D02*
X-3720410Y-6443230D01*
X-3659450Y-6443230D01*
X-3644210Y-6427990D01*
X-3644210Y-6412750D01*
X-3659450Y-6397510D01*
X-3720410Y-6397510D01*
X-3735650Y-6382270D01*
X-3735650Y-6367030D01*
X-3720410Y-6351790D01*
X-3659450Y-6351790D01*
X-3644210Y-6367030D01*
X-3598490Y-6351790D02*
X-3537530Y-6351790D01*
X-3568010Y-6351790D02*
X-3568010Y-6443230D01*
X-3598490Y-6443230D02*
X-3537530Y-6443230D01*
X-3491810Y-6351790D02*
X-3400370Y-6351790D01*
X-3491810Y-6443230D01*
X-3400370Y-6443230D01*
X-3278450Y-6443230D02*
X-3369890Y-6443230D01*
X-3369890Y-6351790D01*
X-3278450Y-6351790D01*
X-3369890Y-6397510D02*
X-3308930Y-6397510D01*
X-2922850Y-6443230D02*
X-2922850Y-6351790D01*
X-2846650Y-6351790D01*
X-2831410Y-6367030D01*
X-2831410Y-6382270D01*
X-2846650Y-6397510D01*
X-2922850Y-6397510D01*
X-2800930Y-6351790D02*
X-2800930Y-6443230D01*
X-2709490Y-6443230D01*
X-2679010Y-6443230D02*
X-2679010Y-6382270D01*
X-2648530Y-6351790D01*
X-2618050Y-6351790D01*
X-2587570Y-6382270D01*
X-2587570Y-6443230D01*
X-2679010Y-6412750D02*
X-2587570Y-6412750D01*
X-2557090Y-6351790D02*
X-2465650Y-6351790D01*
X-2511370Y-6351790D02*
X-2511370Y-6443230D01*
X-2343730Y-6443230D02*
X-2435170Y-6443230D01*
X-2435170Y-6351790D01*
X-2343730Y-6351790D01*
X-2435170Y-6397510D02*
X-2374210Y-6397510D01*
X-2313250Y-6443230D02*
X-2313250Y-6351790D01*
X-2252290Y-6351790D01*
X-2221810Y-6382270D01*
X-2221810Y-6412750D01*
X-2252290Y-6443230D01*
X-2313250Y-6443230D01*
X-2089730Y-6382270D02*
X-2059250Y-6351790D01*
X-2028770Y-6351790D01*
X-1998290Y-6382270D01*
X-1998290Y-6412750D01*
X-2028770Y-6443230D01*
X-2059250Y-6443230D01*
X-2089730Y-6412750D01*
X-2089730Y-6382270D01*
X-2028770Y-6412750D02*
X-1998290Y-6443230D01*
X-1967810Y-6351790D02*
X-1876370Y-6351790D01*
X-1922090Y-6351790D02*
X-1922090Y-6443230D01*
X-1754450Y-6351790D02*
X-1845890Y-6443230D01*
X-1845890Y-6351790D02*
X-1800170Y-6397510D01*
D17*
X-4013780Y-6588010D02*
X-4013780Y-6715010D01*
X-4077280Y-6651510D02*
X-3950280Y-6651510D01*
D18*
X-3716600Y-6676910D02*
X-3716600Y-6626110D01*
X-3703900Y-6613410D01*
X-3653100Y-6613410D01*
X-3640400Y-6626110D01*
X-3640400Y-6676910D01*
X-3653100Y-6689610D01*
X-3703900Y-6689610D01*
X-3716600Y-6676910D01*
X-3716600Y-6689610D02*
X-3640400Y-6613410D01*
X-3576900Y-6676910D02*
X-3564200Y-6676910D01*
X-3564200Y-6689610D01*
X-3576900Y-6689610D01*
X-3576900Y-6676910D01*
X-3500700Y-6626110D02*
X-3488000Y-6613410D01*
X-3449900Y-6613410D01*
X-3437200Y-6626110D01*
X-3437200Y-6638810D01*
X-3449900Y-6651510D01*
X-3437200Y-6664210D01*
X-3437200Y-6676910D01*
X-3449900Y-6689610D01*
X-3488000Y-6689610D01*
X-3500700Y-6676910D01*
X-3475300Y-6651510D02*
X-3449900Y-6651510D01*
X-3386400Y-6651510D02*
X-3399100Y-6638810D01*
X-3399100Y-6626110D01*
X-3386400Y-6613410D01*
X-3348300Y-6613410D01*
X-3335600Y-6626110D01*
X-3335600Y-6638810D01*
X-3348300Y-6651510D01*
X-3386400Y-6651510D01*
X-3399100Y-6664210D01*
X-3399100Y-6676910D01*
X-3386400Y-6689610D01*
X-3348300Y-6689610D01*
X-3335600Y-6676910D01*
X-3335600Y-6664210D01*
X-3348300Y-6651510D01*
X-3284800Y-6638810D02*
X-3259400Y-6613410D01*
X-3259400Y-6689610D01*
X-3208600Y-6689610D02*
X-3208600Y-6638810D01*
X-3208600Y-6651510D02*
X-3195900Y-6638810D01*
X-3170500Y-6664210D01*
X-3145100Y-6638810D01*
X-3132400Y-6651510D01*
X-3132400Y-6689610D01*
X-3107000Y-6689610D02*
X-3107000Y-6638810D01*
X-3107000Y-6651510D02*
X-3094300Y-6638810D01*
X-3068900Y-6664210D01*
X-3043500Y-6638810D01*
X-3030800Y-6651510D01*
X-3030800Y-6689610D01*
X-2814900Y-6613410D02*
X-2891100Y-6689610D01*
X-2891100Y-6613410D02*
X-2853000Y-6651510D01*
X-2713300Y-6689610D02*
X-2789500Y-6689610D01*
X-2789500Y-6613410D01*
X-2713300Y-6613410D01*
X-2789500Y-6651510D02*
X-2738700Y-6651510D01*
X-2687900Y-6676910D02*
X-2675200Y-6689610D01*
X-2624400Y-6689610D01*
X-2611700Y-6676910D01*
X-2611700Y-6664210D01*
X-2624400Y-6651510D01*
X-2675200Y-6651510D01*
X-2687900Y-6638810D01*
X-2687900Y-6626110D01*
X-2675200Y-6613410D01*
X-2624400Y-6613410D01*
X-2611700Y-6626110D01*
X-2019880Y-6638810D02*
X-1994480Y-6613410D01*
X-1994480Y-6689610D01*
X-1918280Y-6651510D02*
X-1930980Y-6638810D01*
X-1930980Y-6626110D01*
X-1918280Y-6613410D01*
X-1880180Y-6613410D01*
X-1867480Y-6626110D01*
X-1867480Y-6638810D01*
X-1880180Y-6651510D01*
X-1918280Y-6651510D01*
X-1930980Y-6664210D01*
X-1930980Y-6676910D01*
X-1918280Y-6689610D01*
X-1880180Y-6689610D01*
X-1867480Y-6676910D01*
X-1867480Y-6664210D01*
X-1880180Y-6651510D01*
D17*
X-4058681Y-6847909D02*
X-3968879Y-6937711D01*
X-4058681Y-6937711D02*
X-3968879Y-6847909D01*
D18*
X-3716600Y-6918210D02*
X-3716600Y-6867410D01*
X-3703900Y-6854710D01*
X-3653100Y-6854710D01*
X-3640400Y-6867410D01*
X-3640400Y-6918210D01*
X-3653100Y-6930910D01*
X-3703900Y-6930910D01*
X-3716600Y-6918210D01*
X-3716600Y-6930910D02*
X-3640400Y-6854710D01*
X-3576900Y-6918210D02*
X-3564200Y-6918210D01*
X-3564200Y-6930910D01*
X-3576900Y-6930910D01*
X-3576900Y-6918210D01*
X-3500700Y-6854710D02*
X-3437200Y-6854710D01*
X-3437200Y-6867410D01*
X-3500700Y-6930910D01*
X-3335600Y-6867410D02*
X-3348300Y-6854710D01*
X-3386400Y-6854710D01*
X-3399100Y-6867410D01*
X-3399100Y-6918210D01*
X-3386400Y-6930910D01*
X-3348300Y-6930910D01*
X-3335600Y-6918210D01*
X-3335600Y-6905510D01*
X-3348300Y-6892810D01*
X-3399100Y-6892810D01*
X-3297500Y-6867410D02*
X-3284800Y-6854710D01*
X-3246700Y-6854710D01*
X-3234000Y-6867410D01*
X-3234000Y-6880110D01*
X-3246700Y-6892810D01*
X-3284800Y-6892810D01*
X-3297500Y-6905510D01*
X-3297500Y-6930910D01*
X-3234000Y-6930910D01*
X-3208600Y-6930910D02*
X-3208600Y-6880110D01*
X-3208600Y-6892810D02*
X-3195900Y-6880110D01*
X-3170500Y-6905510D01*
X-3145100Y-6880110D01*
X-3132400Y-6892810D01*
X-3132400Y-6930910D01*
X-3107000Y-6930910D02*
X-3107000Y-6880110D01*
X-3107000Y-6892810D02*
X-3094300Y-6880110D01*
X-3068900Y-6905510D01*
X-3043500Y-6880110D01*
X-3030800Y-6892810D01*
X-3030800Y-6930910D01*
X-2814900Y-6854710D02*
X-2891100Y-6930910D01*
X-2891100Y-6854710D02*
X-2853000Y-6892810D01*
X-2713300Y-6930910D02*
X-2789500Y-6930910D01*
X-2789500Y-6854710D01*
X-2713300Y-6854710D01*
X-2789500Y-6892810D02*
X-2738700Y-6892810D01*
X-2687900Y-6918210D02*
X-2675200Y-6930910D01*
X-2624400Y-6930910D01*
X-2611700Y-6918210D01*
X-2611700Y-6905510D01*
X-2624400Y-6892810D01*
X-2675200Y-6892810D01*
X-2687900Y-6880110D01*
X-2687900Y-6867410D01*
X-2675200Y-6854710D01*
X-2624400Y-6854710D01*
X-2611700Y-6867410D01*
X-2032580Y-6854710D02*
X-1969080Y-6854710D01*
X-1969080Y-6867410D01*
X-2032580Y-6930910D01*
X-1930980Y-6854710D02*
X-1867480Y-6854710D01*
X-1867480Y-6867410D01*
X-1930980Y-6930910D01*
D17*
X-4013780Y-7070610D02*
X-4013780Y-7197610D01*
X-4077280Y-7134110D02*
X-3950280Y-7134110D01*
X-4058681Y-7089209D02*
X-3968879Y-7179011D01*
X-4058681Y-7179011D02*
X-3968879Y-7089209D01*
D18*
X-3691200Y-7121410D02*
X-3665800Y-7096010D01*
X-3665800Y-7172210D01*
X-3576900Y-7159510D02*
X-3564200Y-7159510D01*
X-3564200Y-7172210D01*
X-3576900Y-7172210D01*
X-3576900Y-7159510D01*
X-3513400Y-7159510D02*
X-3513400Y-7108710D01*
X-3500700Y-7096010D01*
X-3449900Y-7096010D01*
X-3437200Y-7108710D01*
X-3437200Y-7159510D01*
X-3449900Y-7172210D01*
X-3500700Y-7172210D01*
X-3513400Y-7159510D01*
X-3513400Y-7172210D02*
X-3437200Y-7096010D01*
X-3386400Y-7121410D02*
X-3361000Y-7096010D01*
X-3361000Y-7172210D01*
X-3234000Y-7108710D02*
X-3246700Y-7096010D01*
X-3284800Y-7096010D01*
X-3297500Y-7108710D01*
X-3297500Y-7159510D01*
X-3284800Y-7172210D01*
X-3246700Y-7172210D01*
X-3234000Y-7159510D01*
X-3234000Y-7146810D01*
X-3246700Y-7134110D01*
X-3297500Y-7134110D01*
X-3208600Y-7172210D02*
X-3208600Y-7121410D01*
X-3208600Y-7134110D02*
X-3195900Y-7121410D01*
X-3170500Y-7146810D01*
X-3145100Y-7121410D01*
X-3132400Y-7134110D01*
X-3132400Y-7172210D01*
X-3107000Y-7172210D02*
X-3107000Y-7121410D01*
X-3107000Y-7134110D02*
X-3094300Y-7121410D01*
X-3068900Y-7146810D01*
X-3043500Y-7121410D01*
X-3030800Y-7134110D01*
X-3030800Y-7172210D01*
X-2814900Y-7096010D02*
X-2891100Y-7172210D01*
X-2891100Y-7096010D02*
X-2853000Y-7134110D01*
X-2713300Y-7172210D02*
X-2789500Y-7172210D01*
X-2789500Y-7096010D01*
X-2713300Y-7096010D01*
X-2789500Y-7134110D02*
X-2738700Y-7134110D01*
X-2687900Y-7159510D02*
X-2675200Y-7172210D01*
X-2624400Y-7172210D01*
X-2611700Y-7159510D01*
X-2611700Y-7146810D01*
X-2624400Y-7134110D01*
X-2675200Y-7134110D01*
X-2687900Y-7121410D01*
X-2687900Y-7108710D01*
X-2675200Y-7096010D01*
X-2624400Y-7096010D01*
X-2611700Y-7108710D01*
X-2032580Y-7108710D02*
X-2019880Y-7096010D01*
X-1981780Y-7096010D01*
X-1969080Y-7108710D01*
X-1969080Y-7121410D01*
X-1981780Y-7134110D01*
X-2019880Y-7134110D01*
X-2032580Y-7146810D01*
X-2032580Y-7172210D01*
X-1969080Y-7172210D01*
X-1918280Y-7121410D02*
X-1892880Y-7096010D01*
X-1892880Y-7172210D01*
D17*
X-3950280Y-7375410D02*
X-3950497Y-7370163D01*
X-3952262Y-7359668D01*
X-3955954Y-7349173D01*
X-3961982Y-7338678D01*
X-3971204Y-7328298D01*
X-3981699Y-7320610D01*
X-3992194Y-7315692D01*
X-4002689Y-7312886D01*
X-4013184Y-7311913D01*
X-4013780Y-7311910D01*
X-4077280Y-7375410D02*
X-4077063Y-7370163D01*
X-4075298Y-7359668D01*
X-4071606Y-7349173D01*
X-4065578Y-7338678D01*
X-4056356Y-7328298D01*
X-4045861Y-7320610D01*
X-4035366Y-7315692D01*
X-4024871Y-7312886D01*
X-4014376Y-7311913D01*
X-4013780Y-7311910D01*
X-4077280Y-7375410D02*
X-4077063Y-7380657D01*
X-4075298Y-7391152D01*
X-4071606Y-7401647D01*
X-4065578Y-7412142D01*
X-4056356Y-7422522D01*
X-4045861Y-7430210D01*
X-4035366Y-7435128D01*
X-4024871Y-7437934D01*
X-4014376Y-7438907D01*
X-4013780Y-7438910D01*
X-3950280Y-7375410D02*
X-3950497Y-7380657D01*
X-3952262Y-7391152D01*
X-3955954Y-7401647D01*
X-3961982Y-7412142D01*
X-3971204Y-7422522D01*
X-3981699Y-7430210D01*
X-3992194Y-7435128D01*
X-4002689Y-7437934D01*
X-4013184Y-7438907D01*
X-4013780Y-7438910D01*
X-4013780Y-7311910D02*
X-4013780Y-7438910D01*
X-4077280Y-7375410D02*
X-3950280Y-7375410D01*
D18*
X-3703900Y-7350010D02*
X-3691200Y-7337310D01*
X-3653100Y-7337310D01*
X-3640400Y-7350010D01*
X-3640400Y-7362710D01*
X-3653100Y-7375410D01*
X-3640400Y-7388110D01*
X-3640400Y-7400810D01*
X-3653100Y-7413510D01*
X-3691200Y-7413510D01*
X-3703900Y-7400810D01*
X-3678500Y-7375410D02*
X-3653100Y-7375410D01*
X-3576900Y-7400810D02*
X-3564200Y-7400810D01*
X-3564200Y-7413510D01*
X-3576900Y-7413510D01*
X-3576900Y-7400810D01*
X-3437200Y-7350010D02*
X-3449900Y-7337310D01*
X-3488000Y-7337310D01*
X-3500700Y-7350010D01*
X-3500700Y-7400810D01*
X-3488000Y-7413510D01*
X-3449900Y-7413510D01*
X-3437200Y-7400810D01*
X-3437200Y-7388110D01*
X-3449900Y-7375410D01*
X-3500700Y-7375410D01*
X-3411800Y-7413510D02*
X-3411800Y-7362710D01*
X-3411800Y-7375410D02*
X-3399100Y-7362710D01*
X-3373700Y-7388110D01*
X-3348300Y-7362710D01*
X-3335600Y-7375410D01*
X-3335600Y-7413510D01*
X-3310200Y-7413510D02*
X-3310200Y-7362710D01*
X-3310200Y-7375410D02*
X-3297500Y-7362710D01*
X-3272100Y-7388110D01*
X-3246700Y-7362710D01*
X-3234000Y-7375410D01*
X-3234000Y-7413510D01*
X-2814900Y-7337310D02*
X-2891100Y-7413510D01*
X-2891100Y-7337310D02*
X-2853000Y-7375410D01*
X-2713300Y-7413510D02*
X-2789500Y-7413510D01*
X-2789500Y-7337310D01*
X-2713300Y-7337310D01*
X-2789500Y-7375410D02*
X-2738700Y-7375410D01*
X-2687900Y-7400810D02*
X-2675200Y-7413510D01*
X-2624400Y-7413510D01*
X-2611700Y-7400810D01*
X-2611700Y-7388110D01*
X-2624400Y-7375410D01*
X-2675200Y-7375410D01*
X-2687900Y-7362710D01*
X-2687900Y-7350010D01*
X-2675200Y-7337310D01*
X-2624400Y-7337310D01*
X-2611700Y-7350010D01*
X-1969080Y-7388110D02*
X-2045280Y-7388110D01*
X-1994480Y-7337310D01*
X-1994480Y-7413510D01*
M02*
