G04 PROTEUS RS274X GERBER FILE*
%FSLAX45Y45*%
%MOMM*%
G01*
%ADD10C,0.762000*%
%ADD11C,0.762000*%
%ADD12R,1.270000X1.270000*%
%ADD13C,1.270000*%
%ADD14C,2.032000*%
%ADD15R,2.032000X2.032000*%
%ADD16C,1.778000*%
D10*
X-1750000Y+1000000D02*
X-1296500Y+546500D01*
X-1296500Y-1214500D01*
X-979000Y-1532000D01*
X-2000000Y-250000D02*
X-1423500Y-826500D01*
X-1423500Y-1341500D01*
X-979000Y-1786000D01*
X-2000000Y-250000D02*
X-2250000Y-250000D01*
X-2562500Y+62500D01*
X-2562500Y+1437500D01*
X-2000000Y+2000000D01*
X-1886000Y-1948000D02*
X-2022874Y-2084874D01*
X-2022874Y-3375455D01*
X-2022874Y-3418640D01*
X-1869768Y-3571746D01*
X+1251252Y-3571746D01*
X+1329768Y-3493230D01*
X+1556000Y-3266998D01*
X+1556000Y-3175000D01*
X+1360000Y-226000D02*
X+1360000Y+1516000D01*
X+672000Y+2204000D01*
X+672000Y+2405000D01*
X+545000Y+2532000D01*
X+1624500Y+2405000D02*
X+1624500Y-215500D01*
X+1360000Y-480000D01*
X+1624500Y+2405000D02*
X+1624500Y+2675500D01*
X+2048000Y+3099000D01*
X+545000Y+2024000D02*
X+213633Y+2024000D01*
X+108793Y+2128840D01*
X+96522Y+2141111D01*
X+96522Y+2619661D01*
X+605749Y+3128888D01*
X+654831Y+3128888D01*
X+1256112Y+3128888D01*
X+1286000Y+3099000D01*
X+1167000Y+1349000D02*
X+989500Y+1171500D01*
X+989500Y-617500D01*
X+1360000Y-988000D01*
X+1167000Y+1349000D02*
X+746000Y+1770000D01*
X+545000Y+1770000D01*
X-217000Y-3437000D02*
X-217000Y-2802000D01*
X+545000Y-2040000D01*
X+705414Y-2508766D02*
X+837118Y-2377062D01*
X+837118Y-1925508D01*
X+697610Y-1786000D01*
X+545000Y-1786000D01*
X-929783Y-3794611D02*
X-935278Y-3789116D01*
X-938883Y-3789116D01*
X-956370Y-3806603D01*
X-1320923Y-3806603D01*
X-1406403Y-3892083D01*
X-1406403Y-4091540D01*
X-1265972Y-4231971D01*
X-958648Y-4231971D01*
X-730000Y-4460619D01*
X-730000Y-4500000D01*
X-608264Y-2283472D02*
X-750000Y-2425208D01*
X-750000Y-3424907D01*
X-704719Y-3470188D01*
X-718444Y-3470188D01*
X-718499Y-3470243D01*
X-979000Y+2786000D02*
X-3138000Y+2786000D01*
X-3265000Y+2659000D01*
X-3265000Y-4326000D01*
X-3091000Y-4500000D01*
X-984000Y-4500000D01*
X-1419150Y+3007591D02*
X-1426741Y+3000000D01*
X-3250000Y+3000000D01*
X-3500000Y+2750000D01*
X-3500000Y-4515710D01*
X-3015710Y-5000000D01*
X-1230000Y-5000000D01*
X-984000Y-4754000D01*
X-500000Y-3437000D02*
X-500000Y+1000000D01*
X-762000Y+1262000D01*
X-979000Y+1262000D01*
X-725000Y-3691000D02*
X+735500Y-3691000D01*
X+862500Y-3818000D01*
X+862500Y-4834000D01*
X+735500Y-4961000D01*
X+286000Y-4961000D01*
X+286000Y-4754000D01*
X-1104000Y-3008000D02*
X-1677500Y-2434500D01*
X-1677500Y-1913000D01*
X-1804500Y-1786000D01*
X-3008000Y-1786000D01*
X-3008000Y-1500000D01*
X+2122000Y-2004000D02*
X+1750000Y-2004000D01*
X+1921000Y+1329000D02*
X+1750000Y+1250000D01*
X+1750000Y-2004000D01*
X+1750000Y-2484500D01*
X+1750000Y-2611500D02*
X+1750000Y-2727000D01*
X+1556000Y-2921000D01*
X+1921000Y+1329000D02*
X+1921000Y+1516000D01*
X+2048000Y+1643000D01*
X+2048000Y+2083000D01*
X+1750000Y-2484500D02*
X+1750000Y-2611500D01*
X-1019100Y-3994304D02*
X-653654Y-3994304D01*
X-478483Y-4169475D01*
X-251967Y-4169475D01*
X+32000Y-4453442D01*
X+32000Y-4500000D01*
X-1886000Y-932000D02*
X-1550500Y-1267500D01*
X-1550500Y-1949500D01*
X-1250000Y-2250000D01*
X-1886000Y-932000D02*
X-2566500Y-932000D01*
X-2754000Y-1119500D01*
X-2754000Y-1500000D01*
X-2000000Y+4000D02*
X-1750000Y+254000D01*
X-1750000Y+746000D01*
X-1250000Y-2250000D02*
X-1009500Y-2009500D01*
X-1000000Y-2000000D01*
X-979000Y-2040000D01*
X+1360000Y-2004000D02*
X+1360000Y-2011578D01*
X+1204019Y-2167559D01*
X+1216172Y-2179712D01*
X+1216172Y-2750909D01*
X+967081Y-3000000D01*
X+750000Y-3000000D01*
X-979000Y+2278000D02*
X-1150071Y+2295146D01*
X-1313066Y+2132151D01*
X-1313066Y+1661126D01*
X-1500000Y+1500000D01*
X-1750000Y+1000000D02*
X-2000000Y+1250000D01*
X-2000000Y+1500000D01*
X-1595288Y+1904712D01*
X-1595288Y+2294172D01*
X-1765797Y+2464681D01*
X-1956681Y+2464681D01*
X-2000000Y+2508000D01*
X-1750000Y+1500000D02*
X-1500000Y+1250000D01*
X-1250000Y+1250000D01*
X-1158280Y+1590720D01*
X-979000Y+1770000D01*
X+32000Y-4754000D02*
X+32000Y-4998772D01*
X+51527Y-5018299D01*
X-270549Y-5018299D01*
X-325447Y-4963401D01*
X-2381023Y-4255960D02*
X-2381023Y-2335383D01*
X-2181269Y-2135629D01*
X-2177604Y-2135629D01*
X-1226640Y+742965D02*
X-1226640Y+1006859D01*
X-1109352Y+1138807D01*
X-979000Y+2024000D02*
X-726000Y+2024000D01*
X-500000Y+2250000D01*
X-500000Y+3000000D01*
X+0Y+3500000D01*
X+2000000Y+3500000D01*
X+2386500Y+3294000D01*
X+2386500Y-5088000D01*
X+2259500Y-5215000D01*
X-344000Y-5215000D01*
X-476000Y-5083000D01*
X-476000Y-4754000D01*
D11*
X+1624500Y+2405000D03*
X-217000Y-3437000D03*
X+705414Y-2508766D03*
X-929783Y-3794611D03*
X-718499Y-3470243D03*
X-608264Y-2283472D03*
X-1419150Y+3007591D03*
X-500000Y-3437000D03*
X-725000Y-3691000D03*
X-1019100Y-3994304D03*
X-1250000Y-2250000D03*
X-1500000Y+1500000D03*
X-1750000Y+1500000D03*
X-325447Y-4963401D03*
X-2381023Y-4255960D03*
X-2177604Y-2135629D03*
X-1226640Y+742965D03*
X-1109352Y+1138807D03*
D12*
X-979000Y+2786000D03*
D13*
X-979000Y+2532000D03*
X-979000Y+2278000D03*
X-979000Y+2024000D03*
X-979000Y+1770000D03*
X-979000Y+1516000D03*
X-979000Y+1262000D03*
X-979000Y+1008000D03*
X-979000Y+754000D03*
X-979000Y+500000D03*
X-979000Y+246000D03*
X-979000Y-8000D03*
X-979000Y-262000D03*
X-979000Y-516000D03*
X-979000Y-770000D03*
X-979000Y-1024000D03*
X-979000Y-1278000D03*
X-979000Y-1532000D03*
X-979000Y-1786000D03*
X-979000Y-2040000D03*
X+545000Y-2040000D03*
X+545000Y-1786000D03*
X+545000Y-1532000D03*
X+545000Y-1278000D03*
X+545000Y-1024000D03*
X+545000Y-770000D03*
X+545000Y-516000D03*
X+545000Y-262000D03*
X+545000Y-8000D03*
X+545000Y+246000D03*
X+545000Y+500000D03*
X+545000Y+754000D03*
X+545000Y+1008000D03*
X+545000Y+1262000D03*
X+545000Y+1516000D03*
X+545000Y+1770000D03*
X+545000Y+2024000D03*
X+545000Y+2278000D03*
X+545000Y+2532000D03*
X+545000Y+2786000D03*
D12*
X+1360000Y-226000D03*
D13*
X+1360000Y-480000D03*
X+1360000Y-734000D03*
X+1360000Y-988000D03*
X+1360000Y-1242000D03*
X+1360000Y-1496000D03*
X+1360000Y-1750000D03*
X+1360000Y-2004000D03*
X+2122000Y-2004000D03*
X+2122000Y-1750000D03*
X+2122000Y-1496000D03*
X+2122000Y-1242000D03*
X+2122000Y-988000D03*
X+2122000Y-734000D03*
X+2122000Y-480000D03*
X+2122000Y-226000D03*
D14*
X-1612000Y-3008000D03*
X-1104000Y-3008000D03*
X-1358000Y-3262000D03*
X-2000000Y+2000000D03*
X-2000000Y+2508000D03*
D15*
X-12000Y-3000000D03*
X+242000Y-3000000D03*
X+496000Y-3000000D03*
X+750000Y-3000000D03*
D14*
X-2000000Y+4000D03*
X-2000000Y-250000D03*
X-1750000Y+746000D03*
X-1750000Y+1000000D03*
D16*
X-1886000Y-1948000D03*
X-1886000Y-932000D03*
D14*
X+1556000Y-3175000D03*
X+1556000Y-2921000D03*
D16*
X+1921000Y+1329000D03*
X+1921000Y+313000D03*
X+2048000Y+2083000D03*
X+2048000Y+3099000D03*
X+1286000Y+2083000D03*
X+1286000Y+3099000D03*
X+1167000Y+333000D03*
X+1167000Y+1349000D03*
D15*
X+540000Y-4500000D03*
X+286000Y-4500000D03*
X+32000Y-4500000D03*
X-222000Y-4500000D03*
X-476000Y-4500000D03*
X-730000Y-4500000D03*
X-984000Y-4500000D03*
X-984000Y-4754000D03*
X-730000Y-4754000D03*
X-476000Y-4754000D03*
X-222000Y-4754000D03*
X+32000Y-4754000D03*
X+286000Y-4754000D03*
X+540000Y-4754000D03*
X-2500000Y-1500000D03*
X-2754000Y-1500000D03*
X-3008000Y-1500000D03*
M02*
